# xmcd
# 
# Track frame offsets:
#     150
#     10810
#     23622
#     35822
#     51437
#     65580
#     78470
#     88522
#     98267
#     114835
#     127080
#     143732
#     157510
#     169977
#     186480
#     202350
#     220770
# 
# Disc length: 3067
# 
# Revision: 2
# Processed by: cddbd v1.5.2PL0 Copyright (c) Steve Scherf et al.
# Submitted via: fre:ac v1.0.31
# 
DISCID=e60bf911
DTITLE=Funny Hill - Cowboy Boots
DYEAR=1987
DGENRE=Country
TTITLE0=Abilene
TTITLE1=I'm Ready To Go
TTITLE2=Wild Irish Rose
TTITLE3=Cowboy Boots
TTITLE4=One In A Million
TTITLE5=Honky Tonk Blues
TTITLE6=On The Road Again
TTITLE7=Children Go Were I Send Thee
TTITLE8=Angel From Montgomery
TTITLE9=Truck Driving Man
TTITLE10=Walking In Jeruzalem
TTITLE11=Little Cabin On The Hill
TTITLE12=Popperboys
TTITLE13=Six Days On The Road
TTITLE14=White Line Fever
TTITLE15=Tennessee
TTITLE16=Popperboys
EXTD=YEAR: 1987 ID3G: 2
EXTT0=
EXTT1=
EXTT2=
EXTT3=
EXTT4=
EXTT5=
EXTT6=
EXTT7=
EXTT8=
EXTT9=
EXTT10=
EXTT11=
EXTT12=
EXTT13=
EXTT14=
EXTT15=
EXTT16=
PLAYORDER=
